<mxfile host="app.diagrams.net" modified="2022-04-05T14:49:23.381Z" agent="5.0 (Macintosh; Intel Mac OS X 10_15_7) AppleWebKit/537.36 (KHTML, like Gecko) Chrome/100.0.4896.60 Safari/537.36" etag="jXomr9UC1yvvbLNp-fCA" version="17.4.0" type="github">
  <diagram id="Led0EMedwqzYoG8Oai3T" name="Page-1">
    <mxGraphModel dx="946" dy="711" grid="1" gridSize="10" guides="1" tooltips="1" connect="1" arrows="1" fold="1" page="1" pageScale="1" pageWidth="827" pageHeight="1169" math="0" shadow="0">
      <root>
        <mxCell id="0" />
        <mxCell id="1" parent="0" />
        <mxCell id="ul5WRYpsYHFitPn9ys63-29" value="" style="shape=ext;double=1;rounded=1;whiteSpace=wrap;html=1;" vertex="1" parent="1">
          <mxGeometry x="610" y="290" width="270" height="590" as="geometry" />
        </mxCell>
        <mxCell id="ul5WRYpsYHFitPn9ys63-3" value="" style="edgeStyle=orthogonalEdgeStyle;rounded=0;orthogonalLoop=1;jettySize=auto;html=1;" edge="1" parent="1" source="ul5WRYpsYHFitPn9ys63-1" target="ul5WRYpsYHFitPn9ys63-2">
          <mxGeometry relative="1" as="geometry" />
        </mxCell>
        <mxCell id="ul5WRYpsYHFitPn9ys63-1" value="new Reaction(name, onInvalidate)" style="ellipse;whiteSpace=wrap;html=1;" vertex="1" parent="1">
          <mxGeometry x="40" y="210" width="220" height="70" as="geometry" />
        </mxCell>
        <mxCell id="ul5WRYpsYHFitPn9ys63-5" value="" style="edgeStyle=orthogonalEdgeStyle;rounded=0;orthogonalLoop=1;jettySize=auto;html=1;" edge="1" parent="1" source="ul5WRYpsYHFitPn9ys63-2" target="ul5WRYpsYHFitPn9ys63-4">
          <mxGeometry relative="1" as="geometry" />
        </mxCell>
        <mxCell id="ul5WRYpsYHFitPn9ys63-2" value="首次执行或依赖过期" style="whiteSpace=wrap;html=1;" vertex="1" parent="1">
          <mxGeometry x="90" y="365" width="120" height="60" as="geometry" />
        </mxCell>
        <mxCell id="ul5WRYpsYHFitPn9ys63-7" value="" style="edgeStyle=orthogonalEdgeStyle;rounded=0;orthogonalLoop=1;jettySize=auto;html=1;" edge="1" parent="1" source="ul5WRYpsYHFitPn9ys63-4" target="ul5WRYpsYHFitPn9ys63-6">
          <mxGeometry relative="1" as="geometry" />
        </mxCell>
        <mxCell id="ul5WRYpsYHFitPn9ys63-4" value="（schedule）&lt;br&gt;加入 pendingReactions 队列" style="whiteSpace=wrap;html=1;" vertex="1" parent="1">
          <mxGeometry x="90" y="510" width="120" height="60" as="geometry" />
        </mxCell>
        <mxCell id="ul5WRYpsYHFitPn9ys63-9" value="" style="edgeStyle=orthogonalEdgeStyle;rounded=0;orthogonalLoop=1;jettySize=auto;html=1;" edge="1" parent="1" source="ul5WRYpsYHFitPn9ys63-6" target="ul5WRYpsYHFitPn9ys63-8">
          <mxGeometry relative="1" as="geometry" />
        </mxCell>
        <mxCell id="ul5WRYpsYHFitPn9ys63-6" value="runReactions 等待事务结束处理 Reactions&amp;nbsp;" style="whiteSpace=wrap;html=1;" vertex="1" parent="1">
          <mxGeometry x="90" y="660" width="120" height="60" as="geometry" />
        </mxCell>
        <mxCell id="ul5WRYpsYHFitPn9ys63-11" value="" style="edgeStyle=orthogonalEdgeStyle;rounded=0;orthogonalLoop=1;jettySize=auto;html=1;" edge="1" parent="1" source="ul5WRYpsYHFitPn9ys63-8" target="ul5WRYpsYHFitPn9ys63-10">
          <mxGeometry relative="1" as="geometry" />
        </mxCell>
        <mxCell id="ul5WRYpsYHFitPn9ys63-8" value="事务结束，遍历 Reactions 依次调用每个 Reaction 的 runReaction 方法" style="whiteSpace=wrap;html=1;" vertex="1" parent="1">
          <mxGeometry x="90" y="790" width="120" height="60" as="geometry" />
        </mxCell>
        <mxCell id="ul5WRYpsYHFitPn9ys63-15" value="" style="edgeStyle=orthogonalEdgeStyle;rounded=0;orthogonalLoop=1;jettySize=auto;html=1;" edge="1" parent="1" source="ul5WRYpsYHFitPn9ys63-10" target="ul5WRYpsYHFitPn9ys63-14">
          <mxGeometry relative="1" as="geometry" />
        </mxCell>
        <mxCell id="ul5WRYpsYHFitPn9ys63-10" value="调用构造时传入的&lt;br&gt;onInvalidate" style="whiteSpace=wrap;html=1;" vertex="1" parent="1">
          <mxGeometry x="290" y="790" width="120" height="60" as="geometry" />
        </mxCell>
        <mxCell id="ul5WRYpsYHFitPn9ys63-17" value="" style="edgeStyle=orthogonalEdgeStyle;rounded=0;orthogonalLoop=1;jettySize=auto;html=1;" edge="1" parent="1" source="ul5WRYpsYHFitPn9ys63-14" target="ul5WRYpsYHFitPn9ys63-16">
          <mxGeometry relative="1" as="geometry" />
        </mxCell>
        <mxCell id="ul5WRYpsYHFitPn9ys63-18" value="是" style="edgeLabel;html=1;align=center;verticalAlign=middle;resizable=0;points=[];" vertex="1" connectable="0" parent="ul5WRYpsYHFitPn9ys63-17">
          <mxGeometry x="-0.15" y="3" relative="1" as="geometry">
            <mxPoint as="offset" />
          </mxGeometry>
        </mxCell>
        <mxCell id="ul5WRYpsYHFitPn9ys63-14" value="是否执行响应函数" style="rhombus;whiteSpace=wrap;html=1;" vertex="1" parent="1">
          <mxGeometry x="480" y="765" width="120" height="110" as="geometry" />
        </mxCell>
        <mxCell id="ul5WRYpsYHFitPn9ys63-20" value="" style="edgeStyle=orthogonalEdgeStyle;rounded=0;orthogonalLoop=1;jettySize=auto;html=1;" edge="1" parent="1" source="ul5WRYpsYHFitPn9ys63-16" target="ul5WRYpsYHFitPn9ys63-19">
          <mxGeometry relative="1" as="geometry" />
        </mxCell>
        <mxCell id="ul5WRYpsYHFitPn9ys63-16" value="响应函数执行" style="whiteSpace=wrap;html=1;" vertex="1" parent="1">
          <mxGeometry x="680" y="790" width="120" height="60" as="geometry" />
        </mxCell>
        <mxCell id="ul5WRYpsYHFitPn9ys63-22" value="" style="edgeStyle=orthogonalEdgeStyle;rounded=0;orthogonalLoop=1;jettySize=auto;html=1;" edge="1" parent="1" source="ul5WRYpsYHFitPn9ys63-19" target="ul5WRYpsYHFitPn9ys63-21">
          <mxGeometry relative="1" as="geometry" />
        </mxCell>
        <mxCell id="ul5WRYpsYHFitPn9ys63-19" value="通知依赖被读取&lt;br&gt;（OV.reportObserved）" style="whiteSpace=wrap;html=1;" vertex="1" parent="1">
          <mxGeometry x="680" y="650" width="120" height="60" as="geometry" />
        </mxCell>
        <mxCell id="ul5WRYpsYHFitPn9ys63-24" value="" style="edgeStyle=orthogonalEdgeStyle;rounded=0;orthogonalLoop=1;jettySize=auto;html=1;" edge="1" parent="1" source="ul5WRYpsYHFitPn9ys63-21" target="ul5WRYpsYHFitPn9ys63-23">
          <mxGeometry relative="1" as="geometry" />
        </mxCell>
        <mxCell id="ul5WRYpsYHFitPn9ys63-21" value="OV 收集进新依赖数组" style="whiteSpace=wrap;html=1;" vertex="1" parent="1">
          <mxGeometry x="680" y="510" width="120" height="60" as="geometry" />
        </mxCell>
        <mxCell id="ul5WRYpsYHFitPn9ys63-23" value="新旧依赖比较，更新依赖" style="whiteSpace=wrap;html=1;" vertex="1" parent="1">
          <mxGeometry x="680" y="365" width="120" height="60" as="geometry" />
        </mxCell>
        <mxCell id="ul5WRYpsYHFitPn9ys63-25" value="依赖变化" style="whiteSpace=wrap;html=1;" vertex="1" parent="1">
          <mxGeometry x="370" y="365" width="120" height="60" as="geometry" />
        </mxCell>
        <mxCell id="ul5WRYpsYHFitPn9ys63-26" value="" style="endArrow=classic;html=1;rounded=0;exitX=0;exitY=0.5;exitDx=0;exitDy=0;entryX=1;entryY=0.5;entryDx=0;entryDy=0;" edge="1" parent="1" source="ul5WRYpsYHFitPn9ys63-25" target="ul5WRYpsYHFitPn9ys63-2">
          <mxGeometry width="50" height="50" relative="1" as="geometry">
            <mxPoint x="460" y="550" as="sourcePoint" />
            <mxPoint x="490" y="520" as="targetPoint" />
            <Array as="points" />
          </mxGeometry>
        </mxCell>
        <mxCell id="ul5WRYpsYHFitPn9ys63-27" value="" style="endArrow=classic;html=1;rounded=0;exitX=0;exitY=0.5;exitDx=0;exitDy=0;entryX=1;entryY=0.5;entryDx=0;entryDy=0;dashed=1;" edge="1" parent="1" source="ul5WRYpsYHFitPn9ys63-23" target="ul5WRYpsYHFitPn9ys63-25">
          <mxGeometry width="50" height="50" relative="1" as="geometry">
            <mxPoint x="550" y="440" as="sourcePoint" />
            <mxPoint x="600" y="390" as="targetPoint" />
          </mxGeometry>
        </mxCell>
        <mxCell id="ul5WRYpsYHFitPn9ys63-30" value="&lt;span style=&quot;font-weight: normal&quot;&gt;运行时依赖收集&lt;/span&gt;" style="text;strokeColor=none;fillColor=none;html=1;fontSize=24;fontStyle=1;verticalAlign=middle;align=center;" vertex="1" parent="1">
          <mxGeometry x="695" y="300" width="100" height="40" as="geometry" />
        </mxCell>
      </root>
    </mxGraphModel>
  </diagram>
</mxfile>
